inDegrees=yes
name=ik_S53_A11_T02
DataType=double
version=3
OpenSimVersion=4.3-2021-08-27-4bc7ad9
endheader
time	pelvis_tilt	pelvis_list	pelvis_rotation	pelvis_tx	pelvis_ty	pelvis_tz	hip_flexion_r	hip_adduction_r	hip_rotation_r	knee_angle_r	knee_angle_r_beta	ankle_angle_r	subtalar_angle_r	mtp_angle_r	hip_flexion_l	hip_adduction_l	hip_rotation_l	knee_angle_l	knee_angle_l_beta	ankle_angle_l	subtalar_angle_l	mtp_angle_l	lumbar_extension	lumbar_bending	lumbar_rotation	arm_flex_r	arm_add_r	arm_rot_r	elbow_flex_r	pro_sup_r	wrist_flex_r	wrist_dev_r	arm_flex_l	arm_add_l	arm_rot_l	elbow_flex_l	pro_sup_l	wrist_flex_l	wrist_dev_l
10.36666666666676	-1.059716832305397	-2.935255261423926	30.75892570692321	0	0.9399999999999999	0	37.51855057591627	-9.875919308935945	-9.575856744936942	44.06389841225216	0.7690601085581018	0	0	0	37.51855057591627	-9.875919308935945	-9.575856744936942	44.06389841225216	0.7690601085581018	0	0	0	-1.935934199495294	-1.688647062539933	8.228878923309766	42.91695967839441	-9.636622067173343	-15.67035823926623	-0.4483561911799679	122.9254587521591	0	0	15.46221522946079	-16.60977566254954	-8.544339081280468	12.73221220893141	125.0319345438787	0	0
10.38333333333343	-1.094401054091979	-2.77678312627636	30.9414528802248	0	0.9399999999999999	0	37.617470780993	-9.87976165206425	-9.585641077396042	44.19265582764167	0.7713073493930069	0	0	0	37.617470780993	-9.87976165206425	-9.585641077396042	44.19265582764167	0.7713073493930069	0	0	0	-1.896942159095385	-1.534656451938335	7.927162803451457	35.95670843491344	-9.200907877466005	-14.4260649321511	1.711824089127289	122.2998620297571	0	0	15.23616176053095	-16.39970401893405	-8.725443723019032	12.75368214189186	125.0073168054048	0	0
10.4000000000001	-1.152266807743247	-2.65668364744371	30.84314602292612	0	0.9399999999999999	0	37.62154153869199	-9.879991320933582	-9.586148598174209	44.19671226633385	0.7713781476040907	0	0	0	37.62154153869199	-9.879991320933582	-9.586148598174209	44.19671226633385	0.7713781476040907	0	0	0	-1.891315281774884	-1.391791607906973	7.825644703106687	35.95761236730539	-9.640630447566918	-14.09679936909891	-2.522732522991927	123.9855235851247	0	0	15.07121486131544	-16.22782181761175	-9.01923857845197	12.91341817392829	125.1786634232398	0	0
10.41666666666676	-1.189648488016198	-2.496866023194982	31.22384242743774	0	0.9399999999999999	0	37.74793171139677	-9.884831084140199	-9.598555519293845	44.36097739647333	0.7742451149712416	0	0	0	37.74793171139677	-9.884831084140199	-9.598555519293845	44.36097739647333	0.7742451149712416	0	0	0	-1.878490632651027	-1.208883425312706	7.225597874126096	26.45625146770988	-8.733673179796034	-11.77650022877353	3.158421548649744	121.6995337245718	0	0	14.82292569705197	-16.04770754770934	-9.225768394696313	12.98547829040494	125.128660955848	0	0
10.43333333333343	-1.202673689564943	-2.380251022770801	31.13860670770113	0	0.9399999999999999	0	37.75000202698114	-9.884944287440877	-9.59880908534943	44.36305680324127	0.7742814074658304	0	0	0	37.75000202698114	-9.884944287440877	-9.59880908534943	44.36305680324127	0.7742814074658304	0	0	0	-1.830421813332302	-1.100927638703511	7.19536512662363	26.36812857690304	-8.862787485819529	-11.59077616203877	3.15018109595145	121.7170857571544	0	-3.134919129217118e-52	14.67070722231945	-15.91029640573559	-9.392949311387694	13.0060460813763	125.2602920362422	0	-3.134919129217118e-52
10.4500000000001	-1.157138183050902	-2.105294442703626	31.005006770019	0	0.9399999999999999	0	37.75292774470978	-9.885104817585985	-9.59916828533474	44.36598388486363	0.7743324946776152	0	0	0	37.75292774470978	-9.885104817585985	-9.59916828533474	44.36598388486363	0.7743324946776152	0	0	0	-1.653550039626062	-0.8817462840707563	7.100944926393014	26.00713135482733	-9.188644900825489	-11.13863291557897	-0.1999086523375767	122.7286023438748	0	0	14.09882824698548	-15.70023432105825	-9.550759252313128	13.13150867713822	125.2085957346239	0	0
10.46666666666677	-1.157957358435971	-2.107885593026324	31.9330836781325	0	0.9399999999999999	0	37.9103901000536	-9.890899119100487	-9.614291720109804	44.57221161145033	0.7779318475154557	0	0	0	37.9103901000536	-9.890899119100487	-9.614291720109804	44.57221161145033	0.7779318475154557	0	0	0	-1.697448722240233	-0.8575327415629991	6.179064786493768	19.78346451622877	-8.392027054522282	-7.279525739103232	5.841754515473885	117.7877186984375	0	0	14.111118513131	-15.7680234830021	-9.378760176428937	13.14577841722286	125.1478203740931	0	0
10.48333333333343	-1.149322229169466	-2.099192649594252	31.72189411806453	0	0.9399999999999999	0	37.91456040763458	-9.891121491494562	-9.614795912931241	44.57638394996936	0.7780046685601206	0	0	0	37.91456040763458	-9.891121491494562	-9.614795912931241	44.57638394996936	0.7780046685601206	0	0	0	-1.68178001845886	-0.8542443294859722	6.359069080525279	17.31113454774439	-8.238181797230784	-8.937588119692297	5.3172376098733	119.6202894157686	0	0	14.03478283664485	-15.88824480639642	-9.26601573318065	13.19009861845155	125.3509177328767	0	0
10.5000000000001	-1.064351247276295	-1.732590811055833	31.23817362447129	0	0.9399999999999999	0	37.97072769018862	-9.893198815873687	-9.620199477540956	44.64956977795839	0.7792820022243274	0	0	0	37.97072769018862	-9.893198815873687	-9.620199477540956	44.64956977795839	0.7792820022243274	0	0	0	-1.409610237593638	-0.6043151860090406	6.477327267299561	14.63748652512229	-8.632435568596939	-11.9477970556167	7.549143936392409	122.748268928971	0	0	13.28629079655435	-15.56739573740098	-9.485375704051068	13.20395500139761	125.2646907533754	0	0
10.51666666666677	-0.9223142093627207	-1.07757904064898	30.34992080757679	0	0.9399999999999999	0	37.9739464599852	-9.893368237097768	-9.620585911782172	44.65279440644176	0.7793382826085158	0	0	0	37.9739464599852	-9.893368237097768	-9.620585911782172	44.65279440644176	0.7793382826085158	0	0	0	-0.9524744311637965	-0.1113773861472878	6.414990550854676	11.83517553423755	-9.08100764997161	-13.36643093969884	4.466449858294701	125.1772938323554	0	0	11.96515549223182	-15.01019862821129	-10.22008578138106	13.21891310496251	125.3278746930991	0	0
10.53333333333344	-0.7721734560390823	-0.6727880583041194	29.77636087638044	0	0.9399999999999999	0	37.97721946487391	-9.893540063274905	-9.620978252601978	44.6560784979804	0.7793956008188019	0	0	0	37.97721946487391	-9.893540063274905	-9.620978252601978	44.6560784979804	0.7793956008188019	0	0	0	-0.6160589829747531	0.1558140136115309	6.407002767248396	9.389624859267103	-9.427930189427645	-14.16992144752854	6.307719892949818	126.2987574139718	0	0	11.04115723952208	-14.72970647130925	-10.54654437555891	13.2419408638014	125.1781406354281	0	0
